<svg version="1.1" id="Layer_1" xmlns="http://www.w3.org/2000/svg" x="0" y="0" viewBox="0 0 32 32" style="enable-background:new 0 0 32 32" xml:space="preserve"><style></style><path d="M19.429 31H1.5a1 1 0 0 1-1-1V2a1 1 0 0 1 1-1h17.929a1 1 0 0 1 1 1v6a1 1 0 0 1-1 1c-3.86 0-7 3.14-7 7s3.14 7 7 7a1 1 0 0 1 1 1v6a1 1 0 0 1-1 1zM2.5 29h15.929v-4.056c-4.494-.499-8-4.319-8-8.944s3.506-8.445 8-8.944V3H2.5v26z"/><path d="M19.5 28a2.37 2.37 0 0 1-.118-.005c-.519-.043-.953-.478-.953-.999v-2.052c-4.494-.499-8-4.319-8-8.944s3.506-8.445 8-8.944V5.004a1 1 0 0 1 1-1L19.5 4c6.617 0 12 5.383 12 12s-5.383 12-12 12zm.929-21.957V8a1 1 0 0 1-1 1c-3.86 0-7 3.14-7 7s3.14 7 7 7a1 1 0 0 1 1 1v1.962C25.489 25.51 29.5 21.215 29.5 16c0-5.201-3.99-9.487-9.071-9.957zM19.5 20.929c-2.718 0-4.929-2.211-4.929-4.929s2.211-4.929 4.929-4.929 4.929 2.211 4.929 4.929-2.211 4.929-4.929 4.929zm0-7.858c-1.615 0-2.929 1.314-2.929 2.929s1.314 2.929 2.929 2.929 2.929-1.314 2.929-2.929-1.314-2.929-2.929-2.929z"/></svg>